<svg xmlns="http://www.w3.org/2000/svg" width="68" height="69" fill="none" viewBox="0 0 68 69"><ellipse cx="33.913" cy="34.413" fill="#27a" rx="33.913" ry="34.413"/><path fill="#fff" d="M27.014 13.345a21.3 21.3 0 0 0-8.1 6.167 21.73 21.73 0 0 0-4.616 10.7h9.293v3.585h-9.489c.044 1.61.266 3.212.663 4.78h5.882v3.586h-4.633a21.6 21.6 0 0 0 3.859 5.831 21.25 21.25 0 0 0 8.428 5.568v-4.826h3.534v5.75c1.36.233 2.74.332 4.122.294v-9.032h3.533v8.63a21.1 21.1 0 0 0 8.34-3.68 21.5 21.5 0 0 0 6.56-7.829l4.67 2.374a26.8 26.8 0 0 1-8.17 9.75 26.3 26.3 0 0 1-11.686 4.812c-4.22.626-8.527.21-12.555-1.214a26.5 26.5 0 0 1-10.58-6.966 27 27 0 0 1-6.208-11.14 27.3 27.3 0 0 1-.43-12.79 27.06 27.06 0 0 1 5.446-11.542A26.54 26.54 0 0 1 24.964 8.47z"/><g fill="#fff" clip-path="url(#a)"><path d="m30.246 8.552-1.62 9.067a28.7 28.7 0 0 1 14.362 7.712 28.7 28.7 0 0 1 7.908 14.255l9.045-1.745a38.2 38.2 0 0 0-10.546-19.006c-5.493-5.419-12.182-8.846-19.149-10.283m-6.479 36.266 1.852-10.363c1.99.41 3.9 1.39 5.47 2.939a10.9 10.9 0 0 1 3.015 5.43z"/><path d="m47.023 40.332-9.044 1.745a15 15 0 0 0-4.144-7.467 15 15 0 0 0-7.522-4.04l1.619-9.066a24.6 24.6 0 0 1 12.31 6.61c3.532 3.484 5.796 7.752 6.781 12.217"/></g><defs><clipPath id="a"><path fill="#fff" d="m36.379 2.334 29.694 29.29-29.29 29.694L7.09 32.03z"/></clipPath></defs></svg>