<svg xmlns="http://www.w3.org/2000/svg" width="18" height="18" fill="none" viewBox="0 0 18 18"><g clip-path="url(#a)"><path stroke="#000" stroke-linecap="round" stroke-linejoin="round" stroke-width="2" d="M7.915 4.68 5.378 1.751c-.292-.337-.829-.336-1.168.005l-2.087 2.09c-.62.622-.799 1.545-.44 2.285a21.9 21.9 0 0 0 10.172 10.185c.739.36 1.662.182 2.282-.44l2.107-2.11c.34-.341.341-.88.001-1.173l-2.94-2.524c-.307-.263-.785-.229-1.094.08l-1.023 1.025a.345.345 0 0 1-.414.066 10.9 10.9 0 0 1-4.02-4.026.345.345 0 0 1 .066-.415l1.02-1.021c.309-.31.342-.79.075-1.098"/></g><defs><clipPath id="a"><path fill="#fff" d="M0 0h18v18H0z"/></clipPath></defs></svg>