<svg xmlns="http://www.w3.org/2000/svg" width="18" height="18" fill="none" viewBox="0 0 18 18"><path fill="#000" d="M3.75 15.75q-.619 0-1.059-.44a1.45 1.45 0 0 1-.441-1.06V3.75q0-.619.441-1.059T3.75 2.25H6.9q.243-.675.816-1.087Q8.288.75 9 .75t1.285.413q.573.411.815 1.087h3.15q.619 0 1.06.441.44.441.44 1.059v10.5q0 .619-.44 1.06a1.44 1.44 0 0 1-1.06.44zm0-1.5h10.5V3.75H3.75zM6 12.75h3.75q.319 0 .535-.216A.72.72 0 0 0 10.5 12a.73.73 0 0 0-.216-.534.72.72 0 0 0-.534-.216H6a.72.72 0 0 0-.534.216.73.73 0 0 0-.216.534q0 .318.216.535A.72.72 0 0 0 6 12.75m0-3h6q.319 0 .535-.216A.72.72 0 0 0 12.75 9a.73.73 0 0 0-.216-.534A.72.72 0 0 0 12 8.25H6a.72.72 0 0 0-.534.216A.73.73 0 0 0 5.25 9q0 .318.216.535A.72.72 0 0 0 6 9.75m0-3h6q.319 0 .535-.216A.72.72 0 0 0 12.75 6a.73.73 0 0 0-.216-.534A.72.72 0 0 0 12 5.25H6a.72.72 0 0 0-.534.216A.73.73 0 0 0 5.25 6q0 .318.216.535A.72.72 0 0 0 6 6.75m3-3.562a.547.547 0 0 0 .563-.563A.55.55 0 0 0 9 2.063a.544.544 0 0 0-.562.562.545.545 0 0 0 .562.563"/></svg>