<svg xmlns="http://www.w3.org/2000/svg" width="18" height="17" fill="none" viewBox="0 0 18 17"><g filter="url(#a)"><path fill="#000" d="M7.5 0a6 6 0 1 0 3.372 10.965l3.708 3.705a1.126 1.126 0 1 0 1.59-1.59l-3.705-3.708A6 6 0 0 0 7.5 0M3.75 6a3.75 3.75 0 1 1 7.5 0 3.75 3.75 0 0 1-7.5 0"/><path stroke="#000" d="M7.5.5a5.5 5.5 0 0 1 4.551 8.59l-.232.343.293.293 3.705 3.708.012.012a.625.625 0 1 1-.883.883l-.006-.007-.006-.006-3.708-3.705-.293-.292-.342.232A5.5 5.5 0 1 1 7.501.5Zm0 1.25A4.25 4.25 0 0 0 3.25 6 4.25 4.25 0 1 0 7.5 1.75Z"/></g><defs><filter id="a" width="23.025" height="23.028" x="-2.497" y="0" color-interpolation-filters="sRGB" filterUnits="userSpaceOnUse"><feFlood flood-opacity="0" result="BackgroundImageFix"/><feColorMatrix in="SourceAlpha" result="hardAlpha" values="0 0 0 0 0 0 0 0 0 0 0 0 0 0 0 0 0 0 127 0"/><feOffset dy="4"/><feGaussianBlur stdDeviation="2"/><feComposite in2="hardAlpha" operator="out"/><feColorMatrix values="0 0 0 0 0 0 0 0 0 0 0 0 0 0 0 0 0 0 0.25 0"/><feBlend in2="BackgroundImageFix" result="effect1_dropShadow_4042_61"/><feBlend in="SourceGraphic" in2="effect1_dropShadow_4042_61" result="shape"/></filter></defs></svg>